<?xml version="1.0" encoding="UTF-8"?>
<svg xmlns="http://www.w3.org/2000/svg" xmlns:xlink="http://www.w3.org/1999/xlink" width="16px" height="16px" viewBox="0 0 16 16" version="1.1">
<g id="surface1">
<path style=" stroke:none;fill-rule:nonzero;fill:rgb(0%,0%,0%);fill-opacity:1;" d="M 5.039062 2.582031 C 4.289062 2.777344 3.925781 2.894531 3.300781 3.152344 L 2.894531 3.316406 L 2.574219 3.835938 C 1.210938 6.019531 0.535156 8.566406 0.667969 11.019531 L 0.703125 11.726562 L 1.136719 12.015625 C 2.136719 12.671875 2.933594 13.078125 3.878906 13.40625 L 4.425781 13.59375 L 4.554688 13.425781 C 4.746094 13.171875 5.171875 12.433594 5.171875 12.355469 C 5.171875 12.320312 4.902344 12.164062 4.574219 12.011719 L 3.980469 11.726562 L 4.113281 11.601562 L 4.246094 11.464844 L 4.828125 11.683594 C 5.984375 12.121094 6.859375 12.28125 8.054688 12.28125 C 9.1875 12.277344 10.171875 12.085938 11.246094 11.652344 C 11.710938 11.472656 11.792969 11.472656 11.945312 11.648438 C 12.003906 11.722656 11.9375 11.769531 11.390625 12.03125 L 10.773438 12.332031 L 10.945312 12.628906 C 11.128906 12.96875 11.390625 13.367188 11.507812 13.503906 C 11.578125 13.589844 11.625 13.578125 12.179688 13.382812 C 13.371094 12.953125 15.210938 11.921875 15.289062 11.625 C 15.371094 11.347656 15.328125 9.375 15.230469 8.71875 C 15.125 7.980469 14.851562 6.886719 14.613281 6.238281 C 14.375 5.589844 13.828125 4.484375 13.441406 3.855469 L 13.097656 3.3125 L 12.566406 3.105469 C 11.734375 2.777344 10.875 2.523438 10.265625 2.425781 L 10.046875 2.394531 L 9.863281 2.785156 C 9.761719 2.996094 9.648438 3.167969 9.621094 3.164062 C 9.589844 3.15625 9.214844 3.125 8.785156 3.09375 C 8.199219 3.046875 7.800781 3.046875 7.214844 3.09375 C 6.785156 3.125 6.410156 3.15625 6.390625 3.164062 C 6.363281 3.167969 6.257812 3.003906 6.144531 2.800781 C 6.011719 2.550781 5.914062 2.421875 5.839844 2.414062 C 5.78125 2.410156 5.425781 2.484375 5.039062 2.582031 Z M 6.117188 7.207031 C 6.714844 7.492188 7.035156 8.355469 6.804688 9.054688 C 6.691406 9.386719 6.339844 9.796875 6.054688 9.925781 C 5.375 10.234375 4.535156 9.792969 4.316406 9.011719 C 4.105469 8.289062 4.4375 7.464844 5.039062 7.195312 C 5.339844 7.054688 5.824219 7.0625 6.117188 7.207031 Z M 10.960938 7.195312 C 11.210938 7.308594 11.535156 7.648438 11.660156 7.929688 C 11.792969 8.230469 11.785156 8.871094 11.648438 9.171875 C 11.253906 10.03125 10.320312 10.289062 9.652344 9.71875 C 8.65625 8.871094 9.183594 7.09375 10.425781 7.09375 C 10.617188 7.09375 10.832031 7.136719 10.960938 7.195312 Z M 10.960938 7.195312 "/>
</g>
</svg>
