<?xml version="1.0" encoding="UTF-8"?>
<svg xmlns="http://www.w3.org/2000/svg" xmlns:xlink="http://www.w3.org/1999/xlink" width="16px" height="16px" viewBox="0 0 16 16" version="1.1">
<g id="surface1">
<path style=" stroke:none;fill-rule:nonzero;fill:rgb(0%,0%,0%);fill-opacity:1;" d="M 6.828125 1.914062 C 6.828125 3.148438 6.820312 3.839844 6.808594 3.859375 C 6.792969 3.878906 6.75 3.84375 6.582031 3.667969 C 6.324219 3.402344 5.375 2.425781 4.984375 2.027344 C 4.828125 1.863281 4.582031 1.609375 4.4375 1.460938 C 4.289062 1.3125 4.164062 1.191406 4.15625 1.191406 C 4.144531 1.191406 4.097656 1.226562 4.054688 1.273438 C 4.011719 1.324219 3.691406 1.648438 3.347656 2 C 3 2.355469 2.695312 2.671875 2.664062 2.703125 L 2.613281 2.765625 L 2.792969 2.941406 C 2.9375 3.082031 3.601562 3.714844 3.703125 3.8125 C 3.714844 3.824219 3.886719 3.988281 4.089844 4.179688 C 4.289062 4.367188 4.460938 4.53125 4.472656 4.542969 C 4.484375 4.550781 4.648438 4.710938 4.835938 4.890625 C 5.027344 5.070312 5.222656 5.253906 5.265625 5.296875 C 5.425781 5.441406 5.582031 5.429688 3.414062 5.441406 L 1.484375 5.449219 L 1.484375 7.636719 L 3.4375 7.640625 C 4.507812 7.644531 5.386719 7.652344 5.386719 7.660156 C 5.386719 7.667969 5.289062 7.769531 5.167969 7.886719 C 4.5 8.539062 4.273438 8.761719 4.207031 8.828125 C 4.164062 8.867188 3.996094 9.03125 3.832031 9.191406 C 3.664062 9.351562 3.328125 9.679688 3.082031 9.917969 C 2.832031 10.160156 2.632812 10.367188 2.632812 10.382812 C 2.632812 10.414062 4.121094 11.910156 4.152344 11.910156 C 4.164062 11.910156 4.238281 11.84375 4.320312 11.761719 C 6.242188 9.828125 7.96875 8.105469 7.984375 8.105469 C 7.996094 8.105469 8.414062 8.515625 8.910156 9.015625 C 11.007812 11.128906 11.796875 11.910156 11.820312 11.902344 C 11.867188 11.886719 13.332031 10.410156 13.332031 10.375 C 13.332031 10.363281 13.308594 10.328125 13.28125 10.296875 C 13.164062 10.183594 12.628906 9.664062 12.363281 9.40625 C 12.207031 9.253906 11.824219 8.878906 11.511719 8.578125 C 11.203125 8.273438 10.863281 7.945312 10.757812 7.84375 C 10.625 7.71875 10.574219 7.664062 10.59375 7.65625 C 10.609375 7.648438 11.488281 7.644531 12.550781 7.640625 L 14.480469 7.636719 L 14.480469 5.449219 L 12.550781 5.441406 C 10.394531 5.429688 10.539062 5.441406 10.6875 5.308594 C 10.730469 5.269531 10.910156 5.097656 11.089844 4.925781 C 11.480469 4.554688 11.441406 4.589844 11.886719 4.167969 C 12.078125 3.984375 12.316406 3.757812 12.414062 3.664062 C 12.511719 3.570312 12.597656 3.484375 12.613281 3.476562 C 12.621094 3.464844 12.792969 3.304688 12.988281 3.113281 C 13.324219 2.792969 13.347656 2.769531 13.328125 2.734375 C 13.3125 2.714844 13.007812 2.398438 12.648438 2.03125 C 12.285156 1.664062 11.953125 1.324219 11.910156 1.273438 C 11.863281 1.226562 11.820312 1.191406 11.808594 1.191406 C 11.800781 1.191406 11.582031 1.40625 11.324219 1.675781 C 10.785156 2.230469 10.292969 2.734375 9.917969 3.121094 C 9.773438 3.265625 9.546875 3.5 9.414062 3.636719 C 9.21875 3.835938 9.167969 3.878906 9.15625 3.859375 C 9.144531 3.839844 9.136719 3.152344 9.136719 1.914062 L 9.136719 0 L 6.828125 0 Z M 6.828125 1.914062 "/>
<path style=" stroke:none;fill-rule:nonzero;fill:rgb(0%,0%,0%);fill-opacity:1;" d="M 6.839844 10.804688 C 6.832031 10.808594 6.828125 11.980469 6.828125 13.40625 L 6.828125 16 L 9.136719 16 L 9.132812 13.398438 L 9.128906 10.800781 L 7.988281 10.792969 C 7.363281 10.792969 6.84375 10.796875 6.839844 10.804688 Z M 6.839844 10.804688 "/>
</g>
</svg>
