<?xml version="1.0" encoding="UTF-8"?>
<svg xmlns="http://www.w3.org/2000/svg" xmlns:xlink="http://www.w3.org/1999/xlink" width="16px" height="16px" viewBox="0 0 16 16" version="1.1">
<g id="surface1">
<path style=" stroke:none;fill-rule:nonzero;fill:rgb(0%,0%,0%);fill-opacity:1;" d="M 4.949219 0.65625 C 4.730469 0.667969 4.664062 0.675781 4.382812 0.738281 C 3.890625 0.851562 3.355469 1.109375 2.929688 1.449219 C 2.769531 1.578125 0.0742188 4.265625 0.03125 4.339844 C -0.0078125 4.40625 -0.0117188 4.585938 0.0234375 4.652344 C 0.0546875 4.707031 2.21875 6.875 2.292969 6.921875 C 2.320312 6.941406 2.375 6.949219 2.4375 6.949219 C 2.519531 6.949219 2.550781 6.941406 2.605469 6.898438 C 2.644531 6.871094 2.871094 6.65625 3.101562 6.421875 C 3.425781 6.09375 3.53125 6 3.550781 6.011719 C 3.566406 6.027344 3.574219 6.34375 3.574219 7.601562 C 3.574219 8.503906 3.566406 9.175781 3.558594 9.179688 C 3.546875 9.1875 3.460938 9.195312 3.359375 9.199219 C 3.167969 9.207031 2.976562 9.234375 2.851562 9.265625 C 2.8125 9.277344 2.753906 9.289062 2.71875 9.300781 C 2.5625 9.332031 2.277344 9.46875 2.058594 9.613281 C 1.886719 9.722656 1.578125 10.035156 1.460938 10.214844 C 1.25 10.53125 1.148438 10.804688 1.085938 11.199219 C 1.054688 11.394531 1.050781 11.515625 1.050781 12.160156 L 1.046875 12.898438 L 0.910156 13.015625 C 0.835938 13.082031 0.753906 13.152344 0.730469 13.171875 C 0.671875 13.222656 0.4375 13.433594 0.3125 13.546875 C 0.0664062 13.769531 0 13.902344 0 14.195312 C 0 14.464844 0.0625 14.609375 0.261719 14.792969 C 0.375 14.890625 0.460938 14.9375 0.644531 14.976562 C 1.445312 15.160156 2.1875 15.265625 3.269531 15.351562 C 3.753906 15.390625 5.21875 15.390625 5.703125 15.351562 C 6.519531 15.289062 7.230469 15.195312 7.8125 15.085938 C 8.320312 14.988281 8.417969 14.964844 8.550781 14.898438 C 8.722656 14.816406 8.910156 14.589844 8.949219 14.414062 C 8.953125 14.386719 8.976562 14.363281 9 14.355469 C 9.023438 14.351562 9.21875 14.347656 9.4375 14.347656 C 9.789062 14.347656 9.832031 14.351562 9.84375 14.375 C 9.851562 14.394531 9.84375 14.515625 9.828125 14.648438 C 9.816406 14.78125 9.804688 14.917969 9.808594 14.953125 C 9.808594 15.039062 9.875 15.15625 9.960938 15.226562 L 10.03125 15.28125 L 12.714844 15.285156 C 14.542969 15.289062 15.421875 15.285156 15.46875 15.269531 C 15.554688 15.246094 15.652344 15.148438 15.691406 15.046875 C 15.71875 14.972656 15.71875 14.949219 15.691406 14.671875 C 15.675781 14.507812 15.652344 14.238281 15.636719 14.070312 C 15.570312 13.304688 15.550781 13.109375 15.527344 12.84375 C 15.515625 12.6875 15.492188 12.414062 15.476562 12.238281 C 15.460938 12.0625 15.441406 11.828125 15.429688 11.714844 C 15.417969 11.605469 15.402344 11.417969 15.394531 11.308594 C 15.386719 11.195312 15.371094 11.019531 15.363281 10.914062 C 15.351562 10.8125 15.332031 10.589844 15.316406 10.417969 C 15.226562 9.363281 15.226562 9.378906 15.089844 9.28125 C 14.996094 9.210938 14.886719 9.191406 14.613281 9.191406 C 14.390625 9.191406 14.382812 9.1875 14.375 9.148438 C 14.371094 9.128906 14.359375 9.054688 14.347656 8.988281 C 14.277344 8.574219 14.054688 8.210938 13.722656 7.964844 C 13.429688 7.75 13.113281 7.644531 12.75 7.644531 C 12.632812 7.644531 12.515625 7.652344 12.484375 7.660156 C 12.4375 7.675781 12.421875 7.671875 12.410156 7.644531 C 12.382812 7.59375 12.386719 6.039062 12.414062 6.011719 C 12.429688 5.996094 12.53125 6.089844 12.859375 6.421875 C 13.097656 6.65625 13.320312 6.871094 13.359375 6.902344 C 13.414062 6.941406 13.445312 6.949219 13.527344 6.949219 C 13.613281 6.949219 13.644531 6.941406 13.699219 6.898438 C 13.796875 6.832031 15.914062 4.707031 15.9375 4.660156 C 15.945312 4.636719 15.960938 4.621094 15.976562 4.621094 C 15.996094 4.621094 16 4.589844 16 4.496094 C 16 4.414062 15.992188 4.375 15.980469 4.382812 C 15.972656 4.386719 15.949219 4.371094 15.933594 4.339844 C 15.882812 4.25 13.164062 1.546875 12.996094 1.417969 C 12.910156 1.355469 12.785156 1.265625 12.710938 1.214844 C 12.578125 1.128906 12.21875 0.941406 12.152344 0.921875 C 12.132812 0.914062 12.070312 0.890625 12.019531 0.871094 C 11.800781 0.789062 11.710938 0.765625 11.308594 0.679688 C 11.167969 0.652344 10.933594 0.652344 8.167969 0.648438 C 6.527344 0.648438 5.078125 0.652344 4.949219 0.65625 Z M 5.070312 1.308594 C 5.117188 1.554688 5.160156 1.707031 5.253906 1.972656 C 5.328125 2.175781 5.566406 2.574219 5.726562 2.765625 C 5.941406 3.011719 6.207031 3.242188 6.472656 3.398438 C 6.796875 3.589844 7.066406 3.691406 7.492188 3.78125 C 7.6875 3.820312 8.253906 3.820312 8.460938 3.78125 C 9.117188 3.652344 9.605469 3.402344 10.058594 2.949219 C 10.226562 2.789062 10.335938 2.644531 10.5 2.390625 C 10.542969 2.328125 10.6875 2.035156 10.710938 1.972656 C 10.804688 1.714844 10.847656 1.554688 10.890625 1.308594 L 10.925781 1.128906 L 11.066406 1.132812 C 11.296875 1.144531 11.675781 1.234375 11.9375 1.34375 C 12.015625 1.375 12.304688 1.515625 12.363281 1.550781 C 12.464844 1.609375 12.660156 1.75 12.746094 1.820312 C 12.890625 1.941406 15.429688 4.484375 15.429688 4.507812 C 15.429688 4.515625 15.007812 4.949219 14.492188 5.464844 C 13.878906 6.078125 13.542969 6.402344 13.523438 6.398438 C 13.507812 6.394531 13.246094 6.148438 12.949219 5.847656 L 12.398438 5.308594 L 12.390625 4.125 C 12.382812 3.1875 12.375 2.933594 12.359375 2.894531 C 12.324219 2.828125 12.246094 2.792969 12.148438 2.792969 C 12.058594 2.792969 12.015625 2.816406 11.960938 2.898438 C 11.929688 2.9375 11.929688 3.105469 11.929688 5.398438 C 11.929688 7.34375 11.921875 7.859375 11.90625 7.875 C 11.894531 7.882812 11.835938 7.933594 11.773438 7.980469 C 11.664062 8.0625 11.484375 8.253906 11.4375 8.328125 C 11.261719 8.613281 11.203125 8.757812 11.164062 9.023438 C 11.148438 9.101562 11.136719 9.171875 11.128906 9.179688 C 11.121094 9.1875 10.992188 9.195312 10.84375 9.195312 C 10.554688 9.203125 10.515625 9.210938 10.402344 9.292969 C 10.335938 9.347656 10.277344 9.472656 10.277344 9.5625 C 10.277344 9.597656 10.265625 9.742188 10.25 9.882812 C 10.152344 10.855469 10.148438 10.910156 10.207031 10.988281 C 10.292969 11.109375 10.457031 11.125 10.5625 11.019531 C 10.609375 10.976562 10.648438 10.835938 10.648438 10.722656 C 10.648438 10.667969 10.660156 10.5 10.675781 10.355469 C 10.691406 10.207031 10.707031 10.003906 10.71875 9.898438 C 10.726562 9.792969 10.738281 9.703125 10.746094 9.691406 C 10.765625 9.660156 14.746094 9.664062 14.769531 9.695312 C 14.78125 9.707031 14.792969 9.789062 14.800781 9.875 C 14.804688 9.964844 14.820312 10.160156 14.835938 10.3125 C 14.851562 10.460938 14.871094 10.734375 14.890625 10.914062 C 14.90625 11.097656 14.929688 11.359375 14.941406 11.503906 C 14.957031 11.644531 14.96875 11.796875 14.96875 11.839844 C 14.96875 11.882812 14.980469 12.03125 14.996094 12.167969 C 15.011719 12.304688 15.03125 12.558594 15.050781 12.730469 C 15.0625 12.898438 15.085938 13.179688 15.101562 13.351562 C 15.117188 13.523438 15.132812 13.707031 15.136719 13.761719 C 15.148438 13.902344 15.179688 14.265625 15.207031 14.539062 C 15.222656 14.671875 15.226562 14.789062 15.222656 14.800781 C 15.214844 14.824219 14.859375 14.828125 12.761719 14.828125 C 10.558594 14.828125 10.308594 14.824219 10.296875 14.796875 C 10.292969 14.785156 10.296875 14.671875 10.308594 14.554688 C 10.320312 14.4375 10.339844 14.195312 10.355469 14.019531 C 10.371094 13.839844 10.394531 13.585938 10.410156 13.449219 C 10.421875 13.3125 10.4375 13.167969 10.4375 13.128906 C 10.4375 13.0625 10.453125 12.863281 10.515625 12.238281 C 10.539062 12.003906 10.539062 11.988281 10.507812 11.917969 C 10.46875 11.832031 10.382812 11.769531 10.304688 11.769531 C 10.179688 11.769531 10.0625 11.882812 10.0625 12.003906 C 10.0625 12.035156 10.050781 12.179688 10.035156 12.320312 C 10.019531 12.460938 10 12.722656 9.980469 12.898438 C 9.925781 13.550781 9.894531 13.839844 9.878906 13.863281 C 9.867188 13.878906 9.75 13.882812 9.40625 13.882812 C 9.15625 13.882812 8.941406 13.878906 8.929688 13.871094 C 8.921875 13.863281 8.898438 13.832031 8.882812 13.800781 C 8.835938 13.714844 8.761719 13.632812 8.554688 13.453125 C 8.449219 13.363281 8.359375 13.285156 8.355469 13.28125 C 8.351562 13.273438 8.277344 13.207031 8.195312 13.136719 C 8.113281 13.066406 8.015625 12.976562 7.980469 12.941406 L 7.910156 12.875 L 7.910156 12.121094 C 7.910156 11.246094 7.894531 11.089844 7.78125 10.75 C 7.714844 10.558594 7.570312 10.292969 7.4375 10.117188 C 7.289062 9.921875 6.96875 9.632812 6.792969 9.535156 C 6.757812 9.519531 6.714844 9.492188 6.703125 9.484375 C 6.675781 9.464844 6.476562 9.378906 6.328125 9.324219 C 6.128906 9.25 5.859375 9.207031 5.429688 9.191406 C 5.421875 9.191406 5.402344 9.117188 5.390625 9.027344 C 5.359375 8.769531 5.253906 8.609375 5.046875 8.496094 L 4.933594 8.4375 L 4.042969 8.429688 L 4.035156 5.675781 C 4.027344 2.699219 4.035156 2.90625 3.9375 2.824219 C 3.890625 2.78125 3.746094 2.78125 3.679688 2.820312 C 3.582031 2.878906 3.582031 2.847656 3.574219 4.125 L 3.5625 5.308594 L 3.015625 5.847656 C 2.714844 6.148438 2.457031 6.394531 2.441406 6.398438 C 2.421875 6.402344 2.085938 6.078125 1.472656 5.464844 C 0.957031 4.949219 0.535156 4.515625 0.535156 4.507812 C 0.535156 4.476562 3.179688 1.84375 3.296875 1.757812 C 3.394531 1.683594 3.5 1.613281 3.601562 1.550781 C 3.65625 1.519531 3.945312 1.375 4.027344 1.34375 C 4.261719 1.246094 4.65625 1.144531 4.863281 1.128906 C 5.050781 1.121094 5.035156 1.109375 5.070312 1.308594 Z M 5.828125 1.140625 C 5.839844 1.152344 5.847656 1.183594 5.847656 1.207031 C 5.851562 1.289062 5.910156 1.484375 5.953125 1.542969 C 6.019531 1.636719 6.167969 1.652344 6.269531 1.582031 C 6.328125 1.539062 6.371094 1.445312 6.355469 1.371094 C 6.351562 1.335938 6.339844 1.265625 6.335938 1.210938 L 6.324219 1.121094 L 9.636719 1.121094 L 9.636719 1.191406 C 9.636719 1.230469 9.625 1.292969 9.609375 1.328125 C 9.59375 1.363281 9.582031 1.402344 9.582031 1.414062 C 9.582031 1.453125 9.476562 1.667969 9.394531 1.796875 C 9.292969 1.957031 9.070312 2.183594 8.914062 2.28125 C 8.847656 2.328125 8.78125 2.363281 8.773438 2.363281 C 8.761719 2.363281 8.742188 2.375 8.730469 2.390625 C 8.71875 2.402344 8.691406 2.417969 8.671875 2.421875 C 8.648438 2.429688 8.578125 2.453125 8.515625 2.476562 C 8.207031 2.59375 7.761719 2.59375 7.449219 2.476562 C 7.386719 2.453125 7.316406 2.429688 7.296875 2.421875 C 7.246094 2.40625 6.988281 2.25 6.925781 2.195312 C 6.800781 2.085938 6.714844 2.054688 6.625 2.082031 C 6.496094 2.125 6.429688 2.25 6.46875 2.371094 C 6.507812 2.480469 6.722656 2.652344 7.011719 2.804688 C 7.226562 2.914062 7.460938 2.984375 7.742188 3.019531 C 8.128906 3.074219 8.574219 2.992188 8.941406 2.808594 C 9.089844 2.730469 9.214844 2.65625 9.296875 2.585938 C 9.714844 2.238281 9.945312 1.886719 10.082031 1.378906 C 10.097656 1.308594 10.117188 1.230469 10.117188 1.207031 C 10.117188 1.132812 10.152344 1.117188 10.296875 1.125 C 10.417969 1.128906 10.425781 1.132812 10.433594 1.171875 C 10.441406 1.234375 10.363281 1.5625 10.296875 1.734375 C 10.242188 1.875 10.113281 2.128906 10.023438 2.265625 C 9.890625 2.472656 9.5625 2.792969 9.34375 2.9375 C 9.0625 3.121094 8.902344 3.1875 8.480469 3.300781 C 8.332031 3.339844 7.648438 3.347656 7.519531 3.308594 C 7.476562 3.292969 7.40625 3.277344 7.367188 3.269531 C 7.207031 3.238281 6.773438 3.054688 6.683594 2.976562 C 6.667969 2.960938 6.648438 2.949219 6.640625 2.949219 C 6.609375 2.949219 6.335938 2.722656 6.195312 2.574219 C 5.921875 2.289062 5.71875 1.933594 5.609375 1.5625 C 5.542969 1.316406 5.515625 1.15625 5.542969 1.132812 C 5.5625 1.109375 5.804688 1.117188 5.828125 1.140625 Z M 13.09375 8.164062 C 13.367188 8.253906 13.5625 8.398438 13.714844 8.632812 C 13.828125 8.804688 13.9375 9.148438 13.886719 9.179688 C 13.863281 9.195312 12.433594 9.195312 12.410156 9.183594 C 12.398438 9.175781 12.390625 8.976562 12.390625 8.683594 L 12.390625 8.195312 L 12.4375 8.164062 C 12.53125 8.105469 12.914062 8.101562 13.09375 8.164062 Z M 11.929688 8.84375 C 11.929688 9.0625 11.921875 9.175781 11.910156 9.183594 C 11.882812 9.203125 11.640625 9.191406 11.621094 9.175781 C 11.578125 9.132812 11.746094 8.671875 11.84375 8.558594 C 11.921875 8.472656 11.929688 8.492188 11.929688 8.84375 Z M 4.816406 8.910156 C 4.886719 8.933594 4.925781 9.003906 4.925781 9.109375 C 4.925781 9.183594 4.917969 9.191406 4.886719 9.191406 C 4.628906 9.195312 4.066406 9.1875 4.050781 9.183594 C 4.03125 9.167969 4.03125 9.035156 4.054688 8.992188 C 4.0625 8.972656 4.097656 8.941406 4.128906 8.925781 C 4.179688 8.890625 4.21875 8.890625 4.472656 8.890625 C 4.636719 8.890625 4.785156 8.898438 4.816406 8.910156 Z M 5.417969 9.707031 C 5.621094 9.761719 5.816406 9.875 5.972656 10.027344 C 6.269531 10.328125 6.445312 10.683594 6.5625 11.226562 C 6.59375 11.386719 6.605469 12.90625 6.574219 12.914062 C 6.5625 12.917969 6.441406 12.933594 6.3125 12.949219 C 5.683594 13.019531 5.46875 13.03125 4.738281 13.042969 C 4.25 13.050781 3.972656 13.058594 3.9375 13.070312 C 3.769531 13.136719 3.738281 13.355469 3.882812 13.46875 L 3.945312 13.515625 L 4.75 13.503906 C 5.191406 13.503906 5.652344 13.488281 5.769531 13.476562 C 6.523438 13.40625 6.859375 13.363281 7.410156 13.265625 C 7.511719 13.25 7.585938 13.246094 7.609375 13.253906 C 7.640625 13.269531 7.75 13.363281 7.992188 13.582031 C 8.039062 13.625 8.140625 13.714844 8.214844 13.777344 C 8.382812 13.925781 8.398438 13.941406 8.460938 14.027344 C 8.558594 14.164062 8.523438 14.351562 8.375 14.457031 C 8.3125 14.5 8.199219 14.535156 7.964844 14.574219 C 7.886719 14.589844 7.828125 14.601562 7.519531 14.65625 C 7.105469 14.734375 6.472656 14.816406 5.8125 14.875 C 5.308594 14.917969 3.644531 14.917969 3.148438 14.875 C 2.320312 14.800781 1.824219 14.734375 1.199219 14.613281 C 1.140625 14.601562 1.058594 14.585938 1.011719 14.578125 C 0.683594 14.519531 0.59375 14.484375 0.515625 14.378906 C 0.46875 14.316406 0.460938 14.289062 0.460938 14.195312 C 0.460938 14.058594 0.5 14 0.695312 13.832031 C 0.765625 13.765625 0.855469 13.691406 0.890625 13.660156 C 1.304688 13.292969 1.363281 13.246094 1.398438 13.246094 C 1.417969 13.246094 1.496094 13.253906 1.566406 13.269531 C 1.742188 13.304688 2.234375 13.371094 2.710938 13.433594 C 2.921875 13.460938 2.941406 13.460938 3.003906 13.429688 C 3.097656 13.386719 3.136719 13.324219 3.136719 13.21875 C 3.136719 13.15625 3.128906 13.113281 3.101562 13.082031 C 3.035156 12.992188 2.996094 12.980469 2.476562 12.929688 C 2.394531 12.921875 2.378906 12.914062 2.371094 12.875 C 2.363281 12.851562 2.363281 12.496094 2.371094 12.089844 C 2.378906 11.316406 2.386719 11.257812 2.476562 10.933594 C 2.535156 10.730469 2.628906 10.515625 2.710938 10.394531 C 2.734375 10.355469 2.753906 10.324219 2.753906 10.316406 C 2.753906 10.3125 2.792969 10.261719 2.832031 10.207031 C 3.023438 9.960938 3.269531 9.785156 3.542969 9.707031 C 3.644531 9.675781 3.734375 9.671875 4.472656 9.671875 C 5.222656 9.671875 5.300781 9.675781 5.417969 9.707031 Z M 2.417969 9.964844 C 2.417969 9.96875 2.375 10.042969 2.324219 10.128906 C 2.183594 10.355469 2.128906 10.480469 2.042969 10.746094 C 1.921875 11.136719 1.902344 11.324219 1.902344 12.128906 C 1.902344 12.550781 1.894531 12.820312 1.882812 12.828125 C 1.859375 12.84375 1.582031 12.804688 1.554688 12.78125 C 1.535156 12.765625 1.527344 12.628906 1.527344 12.042969 C 1.527344 11.414062 1.53125 11.3125 1.5625 11.171875 C 1.644531 10.769531 1.800781 10.488281 2.078125 10.210938 C 2.246094 10.046875 2.417969 9.921875 2.417969 9.964844 Z M 6.59375 9.972656 C 6.59375 9.980469 6.605469 9.992188 6.613281 9.992188 C 6.648438 9.992188 6.832031 10.140625 6.945312 10.261719 C 7.097656 10.425781 7.195312 10.582031 7.308594 10.835938 C 7.316406 10.855469 7.339844 10.917969 7.359375 10.976562 C 7.429688 11.207031 7.441406 11.320312 7.441406 12.0625 L 7.441406 12.773438 L 7.394531 12.792969 C 7.371094 12.804688 7.289062 12.820312 7.214844 12.824219 L 7.074219 12.835938 L 7.074219 12.199219 C 7.074219 11.664062 7.070312 11.523438 7.039062 11.308594 C 6.992188 10.964844 6.953125 10.792969 6.886719 10.632812 C 6.871094 10.601562 6.863281 10.570312 6.863281 10.558594 C 6.863281 10.527344 6.695312 10.203125 6.625 10.089844 C 6.558594 9.988281 6.546875 9.957031 6.578125 9.957031 C 6.589844 9.957031 6.59375 9.960938 6.59375 9.972656 Z M 6.59375 9.972656 "/>
<path style=" stroke:none;fill-rule:nonzero;fill:rgb(0%,0%,0%);fill-opacity:1;" d="M 7.910156 4.621094 C 7.820312 4.636719 7.695312 4.703125 7.632812 4.765625 C 7.546875 4.847656 7.53125 4.878906 7.34375 5.476562 C 7.28125 5.664062 7.222656 5.832031 7.214844 5.84375 C 7.203125 5.859375 7.046875 5.863281 6.660156 5.871094 C 6.070312 5.875 6.089844 5.875 5.933594 5.996094 C 5.722656 6.160156 5.703125 6.5 5.898438 6.699219 C 5.945312 6.75 6.023438 6.8125 6.070312 6.847656 C 6.214844 6.941406 6.652344 7.265625 6.695312 7.308594 C 6.726562 7.335938 6.734375 7.355469 6.71875 7.382812 C 6.710938 7.40625 6.667969 7.542969 6.621094 7.6875 C 6.574219 7.835938 6.527344 7.984375 6.515625 8.019531 C 6.410156 8.304688 6.398438 8.464844 6.476562 8.613281 C 6.527344 8.710938 6.566406 8.753906 6.683594 8.828125 C 6.753906 8.875 6.773438 8.878906 6.914062 8.878906 C 7.089844 8.878906 7.109375 8.871094 7.371094 8.675781 C 7.8125 8.355469 7.960938 8.25 7.980469 8.25 C 7.996094 8.25 8.097656 8.316406 8.210938 8.398438 C 8.933594 8.925781 8.859375 8.878906 9.050781 8.878906 C 9.175781 8.878906 9.210938 8.871094 9.269531 8.835938 C 9.453125 8.726562 9.535156 8.59375 9.535156 8.398438 C 9.535156 8.28125 9.519531 8.210938 9.449219 8.019531 C 9.4375 7.984375 9.386719 7.835938 9.34375 7.6875 C 9.296875 7.542969 9.25 7.40625 9.246094 7.382812 C 9.230469 7.355469 9.238281 7.335938 9.265625 7.308594 C 9.308594 7.269531 9.660156 7.011719 9.863281 6.871094 C 10.152344 6.671875 10.246094 6.488281 10.183594 6.242188 C 10.148438 6.09375 10.066406 5.996094 9.917969 5.917969 C 9.839844 5.878906 9.820312 5.875 9.304688 5.871094 C 8.917969 5.863281 8.761719 5.859375 8.75 5.84375 C 8.738281 5.824219 8.691406 5.683594 8.476562 5.03125 C 8.425781 4.863281 8.382812 4.800781 8.277344 4.71875 C 8.171875 4.640625 8.019531 4.601562 7.910156 4.621094 Z M 8.078125 5.328125 C 8.117188 5.441406 8.15625 5.566406 8.167969 5.601562 C 8.179688 5.632812 8.21875 5.75 8.253906 5.859375 C 8.289062 5.964844 8.332031 6.082031 8.34375 6.117188 C 8.375 6.1875 8.472656 6.28125 8.550781 6.316406 C 8.578125 6.328125 8.796875 6.339844 9.15625 6.347656 C 9.742188 6.355469 9.777344 6.359375 9.667969 6.433594 C 9.503906 6.539062 8.957031 6.941406 8.871094 7.019531 C 8.792969 7.085938 8.730469 7.210938 8.730469 7.289062 C 8.730469 7.316406 8.757812 7.414062 8.980469 8.09375 C 9.054688 8.320312 9.070312 8.378906 9.050781 8.390625 C 9.019531 8.410156 9.027344 8.414062 8.800781 8.25 C 8.398438 7.953125 8.199219 7.8125 8.148438 7.78125 C 8.109375 7.761719 8.054688 7.75 7.980469 7.75 C 7.835938 7.753906 7.867188 7.730469 7.132812 8.269531 C 6.96875 8.390625 6.898438 8.421875 6.898438 8.371094 C 6.898438 8.363281 6.9375 8.238281 6.984375 8.09375 C 7.222656 7.367188 7.238281 7.308594 7.226562 7.25 C 7.195312 7.105469 7.113281 7.007812 6.894531 6.863281 C 6.832031 6.820312 6.707031 6.726562 6.613281 6.65625 C 6.421875 6.515625 6.378906 6.484375 6.296875 6.433594 C 6.265625 6.414062 6.242188 6.386719 6.246094 6.375 C 6.25 6.359375 6.417969 6.351562 6.8125 6.347656 C 7.167969 6.339844 7.386719 6.328125 7.414062 6.316406 C 7.492188 6.28125 7.589844 6.1875 7.621094 6.117188 C 7.632812 6.082031 7.675781 5.964844 7.710938 5.859375 C 7.742188 5.75 7.78125 5.632812 7.796875 5.601562 C 7.808594 5.566406 7.847656 5.445312 7.882812 5.332031 C 7.921875 5.222656 7.953125 5.125 7.960938 5.113281 C 7.980469 5.074219 8.015625 5.132812 8.078125 5.328125 Z M 8.078125 5.328125 "/>
<path style=" stroke:none;fill-rule:nonzero;fill:rgb(0%,0%,0%);fill-opacity:1;" d="M 12.585938 10.664062 C 12.511719 10.707031 12.433594 10.78125 12.398438 10.84375 C 12.386719 10.871094 12.347656 10.984375 12.3125 11.09375 C 12.277344 11.207031 12.230469 11.332031 12.210938 11.371094 L 12.179688 11.449219 L 11.894531 11.449219 C 11.53125 11.449219 11.453125 11.464844 11.339844 11.574219 C 11.242188 11.671875 11.207031 11.761719 11.222656 11.910156 C 11.238281 12.085938 11.261719 12.109375 11.765625 12.476562 C 11.828125 12.523438 11.839844 12.582031 11.796875 12.679688 C 11.714844 12.871094 11.65625 13.101562 11.65625 13.207031 C 11.65625 13.382812 11.742188 13.507812 11.90625 13.582031 C 12.085938 13.660156 12.195312 13.617188 12.617188 13.300781 C 12.6875 13.246094 12.753906 13.207031 12.769531 13.214844 C 12.78125 13.21875 12.894531 13.296875 13.019531 13.386719 C 13.300781 13.585938 13.378906 13.625 13.496094 13.613281 C 13.605469 13.605469 13.734375 13.523438 13.800781 13.425781 C 13.851562 13.355469 13.855469 13.335938 13.859375 13.210938 C 13.859375 13.074219 13.847656 13.03125 13.722656 12.691406 C 13.664062 12.535156 13.660156 12.542969 13.9375 12.339844 C 14.074219 12.238281 14.203125 12.132812 14.226562 12.101562 C 14.34375 11.945312 14.332031 11.738281 14.191406 11.589844 C 14.144531 11.539062 14.082031 11.492188 14.046875 11.484375 C 14.011719 11.46875 13.835938 11.457031 13.65625 11.449219 L 13.328125 11.441406 L 13.296875 11.359375 C 13.28125 11.316406 13.238281 11.191406 13.203125 11.085938 C 13.109375 10.789062 13.078125 10.742188 12.910156 10.660156 C 12.832031 10.621094 12.667969 10.625 12.585938 10.664062 Z M 12.832031 11.46875 C 12.917969 11.734375 12.949219 11.796875 13.03125 11.859375 L 13.109375 11.910156 L 13.367188 11.910156 C 13.507812 11.910156 13.636719 11.917969 13.648438 11.925781 C 13.675781 11.941406 13.636719 11.980469 13.398438 12.15625 C 13.253906 12.265625 13.21875 12.308594 13.191406 12.402344 C 13.171875 12.484375 13.183594 12.542969 13.269531 12.804688 C 13.335938 13.003906 13.328125 13.035156 13.230469 12.957031 C 13.058594 12.824219 12.882812 12.714844 12.820312 12.703125 C 12.683594 12.683594 12.621094 12.710938 12.375 12.894531 C 12.25 12.992188 12.195312 13.015625 12.195312 12.976562 C 12.195312 12.96875 12.226562 12.863281 12.265625 12.746094 C 12.304688 12.625 12.335938 12.507812 12.335938 12.484375 C 12.335938 12.34375 12.265625 12.25 12.046875 12.097656 C 11.871094 11.976562 11.835938 11.941406 11.863281 11.925781 C 11.875 11.917969 12 11.910156 12.144531 11.910156 C 12.542969 11.910156 12.53125 11.921875 12.738281 11.292969 C 12.753906 11.246094 12.777344 11.289062 12.832031 11.46875 Z M 12.832031 11.46875 "/>
<path style=" stroke:none;fill-rule:nonzero;fill:rgb(0%,0%,0%);fill-opacity:1;" d="M 4.320312 10.023438 C 4.234375 10.070312 4.164062 10.144531 4.132812 10.222656 C 4.089844 10.320312 3.980469 10.648438 3.980469 10.675781 C 3.980469 10.726562 3.914062 10.738281 3.625 10.738281 C 3.320312 10.738281 3.308594 10.742188 3.195312 10.84375 C 3.117188 10.914062 3.074219 11.007812 3.074219 11.121094 C 3.074219 11.296875 3.128906 11.363281 3.445312 11.589844 C 3.644531 11.734375 3.644531 11.734375 3.527344 12.054688 C 3.515625 12.085938 3.492188 12.160156 3.476562 12.21875 C 3.445312 12.316406 3.445312 12.324219 3.476562 12.421875 C 3.535156 12.601562 3.679688 12.710938 3.859375 12.710938 C 3.960938 12.710938 4.019531 12.679688 4.214844 12.539062 C 4.460938 12.359375 4.476562 12.351562 4.519531 12.375 C 4.542969 12.386719 4.621094 12.441406 4.691406 12.496094 C 4.90625 12.65625 5.011719 12.710938 5.117188 12.710938 C 5.289062 12.710938 5.433594 12.601562 5.484375 12.429688 C 5.519531 12.316406 5.515625 12.28125 5.410156 11.96875 C 5.378906 11.867188 5.351562 11.769531 5.351562 11.753906 C 5.351562 11.730469 5.429688 11.664062 5.5625 11.5625 C 5.824219 11.371094 5.902344 11.269531 5.902344 11.117188 C 5.902344 10.992188 5.804688 10.835938 5.6875 10.773438 C 5.625 10.742188 5.585938 10.738281 5.328125 10.738281 C 5.113281 10.738281 5.03125 10.734375 5.015625 10.714844 C 5.007812 10.703125 4.972656 10.613281 4.941406 10.515625 C 4.828125 10.160156 4.785156 10.09375 4.65625 10.027344 C 4.566406 9.980469 4.40625 9.980469 4.320312 10.023438 Z M 4.550781 10.835938 C 4.621094 11.039062 4.632812 11.0625 4.6875 11.113281 C 4.757812 11.179688 4.835938 11.199219 5.007812 11.199219 C 5.230469 11.199219 5.257812 11.222656 5.132812 11.292969 C 4.949219 11.402344 4.835938 11.542969 4.835938 11.664062 C 4.835938 11.71875 4.871094 11.847656 4.917969 11.960938 C 4.972656 12.09375 4.945312 12.101562 4.804688 11.996094 C 4.65625 11.882812 4.621094 11.863281 4.546875 11.851562 C 4.4375 11.832031 4.359375 11.855469 4.210938 11.964844 C 4.136719 12.023438 4.0625 12.070312 4.054688 12.070312 C 4.027344 12.070312 4.03125 11.992188 4.058594 11.925781 C 4.183594 11.644531 4.152344 11.527344 3.902344 11.34375 C 3.828125 11.289062 3.769531 11.238281 3.773438 11.226562 C 3.777344 11.21875 3.863281 11.203125 3.964844 11.199219 C 4.066406 11.191406 4.171875 11.179688 4.195312 11.167969 C 4.289062 11.128906 4.347656 11.042969 4.410156 10.859375 C 4.441406 10.761719 4.476562 10.6875 4.488281 10.691406 C 4.496094 10.691406 4.527344 10.757812 4.550781 10.835938 Z M 4.550781 10.835938 "/>
</g>
</svg>
