<?xml version="1.0" encoding="UTF-8"?>
<svg xmlns="http://www.w3.org/2000/svg" xmlns:xlink="http://www.w3.org/1999/xlink" width="16px" height="16px" viewBox="0 0 16 16" version="1.1">
<g id="surface1">
<path style=" stroke:none;fill-rule:nonzero;fill:rgb(0%,0%,0%);fill-opacity:1;" d="M 3.464844 2.398438 C 2.042969 2.480469 1.308594 2.703125 0.761719 3.214844 C 0.441406 3.519531 0.246094 3.902344 0.117188 4.476562 C 0.0390625 4.828125 0.0273438 5.242188 0.0273438 7.707031 C 0.0273438 10.234375 0.0390625 10.585938 0.121094 11.011719 C 0.382812 12.304688 0.976562 12.992188 2.117188 13.347656 C 2.960938 13.609375 3.257812 13.625 8.132812 13.625 C 12.265625 13.625 12.714844 13.617188 13.242188 13.53125 C 14.207031 13.367188 14.65625 13.171875 15.105469 12.714844 C 15.589844 12.222656 15.828125 11.578125 15.945312 10.449219 C 16.042969 9.507812 15.988281 5.011719 15.871094 4.480469 C 15.664062 3.492188 15.167969 2.949219 14.214844 2.644531 C 13.449219 2.398438 13.113281 2.382812 8.535156 2.375 C 6.144531 2.363281 3.863281 2.378906 3.464844 2.398438 Z M 8.5 6.542969 C 9.441406 7.03125 10.265625 7.460938 10.324219 7.503906 C 10.570312 7.664062 10.617188 8.101562 10.410156 8.28125 C 10.363281 8.324219 9.78125 8.644531 9.121094 8.988281 C 8.457031 9.328125 7.679688 9.738281 7.382812 9.898438 C 6.769531 10.222656 6.59375 10.25 6.351562 10.046875 L 6.1875 9.910156 L 6.1875 7.953125 C 6.1875 6.246094 6.199219 5.984375 6.273438 5.878906 C 6.363281 5.742188 6.523438 5.664062 6.6875 5.660156 C 6.742188 5.652344 7.558594 6.054688 8.5 6.542969 Z M 8.5 6.542969 "/>
</g>
</svg>
