<?xml version="1.0" standalone="no"?>
<!DOCTYPE svg PUBLIC "-//W3C//DTD SVG 20010904//EN"
 "http://www.w3.org/TR/2001/REC-SVG-20010904/DTD/svg10.dtd">
<svg version="1.0" xmlns="http://www.w3.org/2000/svg"
 width="300.000000pt" height="300.000000pt" viewBox="0 0 300.000000 300.000000"
 preserveAspectRatio="xMidYMid meet">
<metadata>
Created by potrace 1.10, written by Peter Selinger 2001-2011
</metadata>
<g transform="translate(0.000000,300.000000) scale(0.100000,-0.100000)"
fill="#000000" stroke="none">
<path d="M650 2550 c-267 -15 -405 -57 -507 -153 -60 -57 -97 -129 -121 -236
-15 -66 -17 -144 -17 -606 0 -474 2 -540 18 -620 49 -242 160 -371 374 -438
158 -49 214 -52 1128 -52 775 0 859 2 958 18 181 31 265 67 349 153 91 92 136
213 158 425 18 176 8 1019 -14 1119 -39 185 -132 287 -311 344 -143 46 -206
49 -1065 51 -448 2 -876 -1 -950 -5z m944 -777 c176 -91 331 -172 342 -180 46
-30 55 -112 16 -146 -9 -8 -118 -68 -242 -132 -124 -64 -270 -141 -326 -171
-115 -61 -148 -66 -193 -28 l-31 26 0 367 c0 320 2 369 16 389 17 25 47 40 78
41 10 1 163 -74 340 -166z"/>
</g>
</svg>
